<svg id="Sprites" xmlns="http://www.w3.org/2000/svg" viewBox="0 0 16 16"><defs><style>.cls-1{fill:none;}.cls-2{fill:#fff;}</style></defs><g id="airport_aerodrome_pnt_black_fill"><rect id="bbox_16" class="cls-1" width="16" height="16"/><circle id="circle_fill" class="cls-2" cx="8" cy="8" r="7"/><path id="airport_aerodrome" d="M11.5,8.5,10,9.5,9,8l2-3.5L10.5,4l-3,2.5-1-1a.71.71,0,0,0-1,1l1,1L4,10.5l.5.5L8,9l1.5,1-1,1.5L9,12l3-3Zm0,0L10,9.5,9,8l2-3.5L10.5,4l-3,2.5-1-1a.71.71,0,0,0-1,1l1,1L4,10.5l.5.5L8,9l1.5,1-1,1.5L9,12l3-3ZM8,1a7,7,0,1,0,7,7A7,7,0,0,0,8,1ZM8,14a6,6,0,1,1,6-6A6,6,0,0,1,8,14Zm2-4.5L9,8l2-3.5L10.5,4l-3,2.5-1-1a.71.71,0,0,0-1,1l1,1L4,10.5l.5.5L8,9l1.5,1-1,1.5L9,12l3-3-.5-.5Z"/></g></svg>