<svg id="Sprites" xmlns="http://www.w3.org/2000/svg" viewBox="0 0 64 32"><defs><style>.cls-1{fill:none;}</style></defs><g id="embankment_no_gap_cl_black_thick"><rect id="bbox_32" class="cls-1" width="32" height="32"/><path id="embankment_no_gap_thick" d="M5,12v8L3.5,30,2,20V12L3.5,2ZM11.5,2,10,12v8l1.5,10L13,20V12Zm8,0L18,12v8l1.5,10L21,20V12Zm8,0L26,12v8l1.5,10L29,20V12Z"/></g><g id="embankment_no_gap_cl_black_thick-2" data-name="embankment_no_gap_cl_black_thick"><rect id="bbox_32-2" data-name="bbox_32" class="cls-1" x="32" width="32" height="32"/><path id="embankment_no_gap_thick-2" data-name="embankment_no_gap_thick" d="M37,12v8L35.5,30,34,20V12L35.5,2ZM43.5,2,42,12v8l1.5,10L45,20V12Zm8,0L50,12v8l1.5,10L53,20V12Zm8,0L58,12v8l1.5,10L61,20V12Z"/></g></svg>